<mxfile host="app.diagrams.net" modified="2021-10-08T10:30:48.212Z" agent="5.0 (Windows)" etag="t8-rzLVuCnG51zRIq8O_" version="15.4.3" type="github">
  <diagram name="Page-1" id="97916047-d0de-89f5-080d-49f4d83e522f">
    <mxGraphModel dx="1508" dy="698" grid="1" gridSize="10" guides="1" tooltips="1" connect="1" arrows="1" fold="1" page="1" pageScale="1.5" pageWidth="1169" pageHeight="827" background="none" math="0" shadow="0">
      <root>
        <mxCell id="0" />
        <mxCell id="1" parent="0" />
        <mxCell id="2" value="Literature Review" style="rounded=1;fillColor=#60a917;strokeColor=#2D7600;shadow=1;fontStyle=1;fontSize=15;fontColor=#ffffff;" parent="1" vertex="1">
          <mxGeometry x="675" y="205.5" width="200" height="60" as="geometry" />
        </mxCell>
        <mxCell id="4" value="Domain Overview" style="rounded=1;fillColor=#60a917;strokeColor=#2D7600;shadow=1;fontStyle=1;fontColor=#ffffff;fontSize=15;" parent="1" vertex="1">
          <mxGeometry x="260" y="455.5" width="200" height="60" as="geometry" />
        </mxCell>
        <mxCell id="5" value="&#xa;Existing Data Gathering &#xa;&#xa;Techniques&#xa;" style="rounded=1;fillColor=#60a917;strokeColor=#2D7600;shadow=1;fontStyle=1;fontColor=#ffffff;fontSize=15;" parent="1" vertex="1">
          <mxGeometry x="672" y="455.5" width="200" height="60" as="geometry" />
        </mxCell>
        <mxCell id="6" value="Existing Systems " style="rounded=1;fillColor=#60a917;strokeColor=#2D7600;shadow=1;fontStyle=1;fontColor=#ffffff;fontSize=15;" parent="1" vertex="1">
          <mxGeometry x="1048" y="455.5" width="200" height="60" as="geometry" />
        </mxCell>
        <mxCell id="8" value="Agriculture in Sri Lanka" style="rounded=1;fillColor=#cdeb8b;strokeColor=#36393d;shadow=1;fontStyle=1;fontSize=14;" parent="1" vertex="1">
          <mxGeometry x="261" y="560.5" width="200" height="60" as="geometry" />
        </mxCell>
        <mxCell id="18" value="Cost of Cultivation" style="rounded=1;fillColor=#cdeb8b;strokeColor=#36393d;shadow=1;fontStyle=1;fontSize=14;" parent="1" vertex="1">
          <mxGeometry x="673" y="561.5" width="200" height="60" as="geometry" />
        </mxCell>
        <mxCell id="19" value="Census and Statistics" style="rounded=1;fillColor=#cdeb8b;strokeColor=#36393d;shadow=1;fontStyle=1;fontSize=14;" parent="1" vertex="1">
          <mxGeometry x="671" y="641.5" width="200" height="60" as="geometry" />
        </mxCell>
        <mxCell id="23" value="Mining Technique" style="rounded=1;fillColor=#cdeb8b;strokeColor=#36393d;shadow=1;fontStyle=1;fontSize=15;" parent="1" vertex="1">
          <mxGeometry x="1047" y="562.5" width="200" height="60" as="geometry" />
        </mxCell>
        <mxCell id="24" value="Machine Learning " style="rounded=1;fillColor=#cdeb8b;strokeColor=#36393d;shadow=1;fontStyle=1;fontSize=15;" parent="1" vertex="1">
          <mxGeometry x="1048" y="642.5" width="200" height="60" as="geometry" />
        </mxCell>
        <mxCell id="25" value="IOT" style="rounded=1;fillColor=#cdeb8b;strokeColor=#36393d;shadow=1;fontStyle=1;fontSize=15;" parent="1" vertex="1">
          <mxGeometry x="1050" y="723.5" width="200" height="60" as="geometry" />
        </mxCell>
        <mxCell id="26" value="Linear Regression" style="rounded=1;fillColor=#cdeb8b;strokeColor=#36393d;shadow=1;fontStyle=1;fontSize=15;" parent="1" vertex="1">
          <mxGeometry x="1054" y="802.5" width="200" height="60" as="geometry" />
        </mxCell>
        <mxCell id="27" value="Deep Neural Network" style="rounded=1;fillColor=#cdeb8b;strokeColor=#36393d;shadow=1;fontStyle=1;fontSize=15;" parent="1" vertex="1">
          <mxGeometry x="1054" y="881.5" width="200" height="60" as="geometry" />
        </mxCell>
        <mxCell id="30" value="" style="edgeStyle=elbowEdgeStyle;elbow=vertical;strokeWidth=4;endArrow=block;endFill=1;fontStyle=1;strokeColor=#23445D;exitX=0.44;exitY=1.008;exitDx=0;exitDy=0;exitPerimeter=0;" parent="1" edge="1">
          <mxGeometry x="22" y="165.5" width="100" height="100" as="geometry">
            <mxPoint x="763" y="265.98" as="sourcePoint" />
            <mxPoint x="770" y="455.5" as="targetPoint" />
            <Array as="points">
              <mxPoint x="770" y="266" />
            </Array>
          </mxGeometry>
        </mxCell>
        <mxCell id="31" value="" style="edgeStyle=elbowEdgeStyle;elbow=vertical;strokeWidth=4;endArrow=block;endFill=1;fontStyle=1;strokeColor=#23445D;" parent="1" target="4" edge="1">
          <mxGeometry x="22" y="165.5" width="100" height="100" as="geometry">
            <mxPoint x="772" y="405.5" as="sourcePoint" />
            <mxPoint x="122" y="165.5" as="targetPoint" />
          </mxGeometry>
        </mxCell>
        <mxCell id="32" value="" style="edgeStyle=elbowEdgeStyle;elbow=vertical;strokeWidth=4;endArrow=block;endFill=1;fontStyle=1;strokeColor=#23445D;entryX=0.5;entryY=0;entryDx=0;entryDy=0;" parent="1" edge="1">
          <mxGeometry x="69" y="165.5" width="100" height="100" as="geometry">
            <mxPoint x="768" y="405.5" as="sourcePoint" />
            <mxPoint x="1136" y="455.5" as="targetPoint" />
          </mxGeometry>
        </mxCell>
        <mxCell id="VzREeZGqQEaffkNiQ26G-58" value="" style="edgeStyle=elbowEdgeStyle;elbow=vertical;strokeWidth=4;endArrow=block;endFill=1;fontStyle=1;strokeColor=#23445D;" edge="1" parent="1">
          <mxGeometry x="62" y="185.5" width="100" height="100" as="geometry">
            <mxPoint x="360" y="520" as="sourcePoint" />
            <mxPoint x="360" y="560" as="targetPoint" />
            <Array as="points">
              <mxPoint x="360" y="560" />
            </Array>
          </mxGeometry>
        </mxCell>
        <mxCell id="VzREeZGqQEaffkNiQ26G-59" value="" style="edgeStyle=elbowEdgeStyle;elbow=vertical;strokeWidth=4;endArrow=block;endFill=1;fontStyle=1;strokeColor=#23445D;" edge="1" parent="1">
          <mxGeometry x="468" y="186.5" width="100" height="100" as="geometry">
            <mxPoint x="766" y="521" as="sourcePoint" />
            <mxPoint x="766" y="561" as="targetPoint" />
            <Array as="points">
              <mxPoint x="766" y="561" />
            </Array>
          </mxGeometry>
        </mxCell>
        <mxCell id="VzREeZGqQEaffkNiQ26G-61" value="" style="edgeStyle=elbowEdgeStyle;elbow=vertical;strokeWidth=4;endArrow=block;endFill=1;fontStyle=1;strokeColor=#23445D;" edge="1" parent="1">
          <mxGeometry x="846" y="186.5" width="100" height="100" as="geometry">
            <mxPoint x="1144" y="521" as="sourcePoint" />
            <mxPoint x="1144" y="561" as="targetPoint" />
            <Array as="points">
              <mxPoint x="1144" y="561" />
            </Array>
          </mxGeometry>
        </mxCell>
      </root>
    </mxGraphModel>
  </diagram>
</mxfile>
